<svg width="35" height="36" viewBox="0 0 35 36" fill="none" xmlns="http://www.w3.org/2000/svg">
<g clip-path="url(#clip0_2_2550)">
<path d="M24.9243 3.87106L21.9546 0.901367H19.8334L20.8409 3.87106H24.9243Z" fill="#FFF5E0"/>
<path d="M19.6743 4.93164H15.3258L17.5 11.4013L19.6743 4.93164Z" fill="#FFF5E0"/>
<path d="M24.9242 4.93164H20.8409L18.7727 11.0832L24.9242 4.93164Z" fill="#FFF5E0"/>
<path d="M18.6667 0.901367H16.3334L15.3258 3.87106H19.6743L18.6667 0.901367Z" fill="#FFF5E0"/>
<path d="M14.1591 4.93164H10.0758L16.2273 11.0832L14.1591 4.93164Z" fill="#FFF5E0"/>
<path d="M15.1667 0.901367H13.0455L10.0758 3.87106H14.1591L15.1667 0.901367Z" fill="#FFF5E0"/>
<path d="M23.0681 8.3252L20.0454 11.3479C24.4469 12.5146 27.4697 16.4388 27.4697 20.9994C27.4697 26.5146 23.0151 31.0222 17.5 31.0222C11.9848 31.0222 7.47724 26.5146 7.47724 20.9994C7.47724 16.4388 10.5 12.5146 14.9015 11.3479L11.9318 8.3252C6.94694 10.5525 3.65906 15.5373 3.65906 20.9994C3.65906 28.6358 9.8636 34.8403 17.5 34.8403C25.1363 34.8403 31.3409 28.6358 31.3409 20.9994C31.3409 15.5373 28.053 10.5525 23.0681 8.3252Z" fill="#FFF5E0"/>
</g>
<defs>
<clipPath id="clip0_2_2550">
<rect width="35" height="35" fill="white" transform="translate(0 0.371094)"/>
</clipPath>
</defs>
</svg>
