<svg width="18" height="19" viewBox="0 0 18 19" fill="none" xmlns="http://www.w3.org/2000/svg">
<path d="M16.4775 14.1196C16.4775 14.3896 16.4175 14.6671 16.29 14.9371C16.1625 15.2071 15.9975 15.4621 15.78 15.7021C15.4125 16.1071 15.0075 16.3996 14.55 16.5871C14.1 16.7746 13.6125 16.8721 13.0875 16.8721C12.3225 16.8721 11.505 16.6921 10.6425 16.3246C9.78 15.9571 8.9175 15.4621 8.0625 14.8396C7.2 14.2096 6.3825 13.5121 5.6025 12.7396C4.83 11.9596 4.1325 11.1421 3.51 10.2871C2.895 9.43207 2.4 8.57707 2.04 7.72957C1.68 6.87457 1.5 6.05707 1.5 5.27707C1.5 4.76707 1.59 4.27957 1.77 3.82957C1.95 3.37207 2.235 2.95207 2.6325 2.57707C3.1125 2.10457 3.6375 1.87207 4.1925 1.87207C4.4025 1.87207 4.6125 1.91707 4.8 2.00707C4.995 2.09707 5.1675 2.23207 5.3025 2.42707L7.0425 4.87957C7.1775 5.06707 7.275 5.23957 7.3425 5.40457C7.41 5.56207 7.4475 5.71957 7.4475 5.86207C7.4475 6.04207 7.395 6.22207 7.29 6.39457C7.1925 6.56707 7.05 6.74707 6.87 6.92707L6.3 7.51957C6.2175 7.60207 6.18 7.69957 6.18 7.81957C6.18 7.87957 6.1875 7.93207 6.2025 7.99207C6.225 8.05207 6.2475 8.09707 6.2625 8.14207C6.3975 8.38957 6.63 8.71207 6.96 9.10207C7.2975 9.49207 7.6575 9.88957 8.0475 10.2871C8.4525 10.6846 8.8425 11.0521 9.24 11.3896C9.63 11.7196 9.9525 11.9446 10.2075 12.0796C10.245 12.0946 10.29 12.1171 10.3425 12.1396C10.4025 12.1621 10.4625 12.1696 10.53 12.1696C10.6575 12.1696 10.755 12.1246 10.8375 12.0421L11.4075 11.4796C11.595 11.2921 11.775 11.1496 11.9475 11.0596C12.12 10.9546 12.2925 10.9021 12.48 10.9021C12.6225 10.9021 12.7725 10.9321 12.9375 10.9996C13.1025 11.0671 13.275 11.1646 13.4625 11.2921L15.945 13.0546C16.14 13.1896 16.275 13.3471 16.3575 13.5346C16.4325 13.7221 16.4775 13.9096 16.4775 14.1196Z" fill="white"/>
</svg>
