<svg width="182" height="49" viewBox="0 0 182 49" fill="none" xmlns="http://www.w3.org/2000/svg">
<mask id="path-1-outside-1_2_4375" maskUnits="userSpaceOnUse" x="54.9859" y="12.2036" width="127" height="22" fill="black">
<rect fill="white" x="54.9859" y="12.2036" width="127" height="22"/>
<path d="M67.6564 23.7285V23.0435H74.8769V30.8063C74.0017 31.6815 72.9267 32.3665 71.6519 32.8611C70.3962 33.3558 68.9882 33.6032 67.4281 33.6032C65.8298 33.6032 64.3553 33.3463 63.0044 32.8326C61.6536 32.2999 60.4739 31.5673 59.4655 30.6351C58.4571 29.6837 57.6675 28.5802 57.0967 27.3245C56.545 26.0687 56.2691 24.6988 56.2691 23.2148C56.2691 21.7307 56.545 20.3608 57.0967 19.1051C57.6675 17.8493 58.4571 16.7553 59.4655 15.823C60.4739 14.8717 61.6536 14.1392 63.0044 13.6255C64.3553 13.0927 65.8298 12.8264 67.4281 12.8264C68.113 12.8264 68.855 12.8739 69.6541 12.9691C70.4723 13.0642 71.2524 13.1974 71.9944 13.3686C72.7364 13.5208 73.3643 13.7111 73.878 13.9394L73.7353 15.5376H73.5641C72.803 14.8717 71.8897 14.3675 70.8243 14.025C69.7588 13.6826 68.6267 13.5113 67.4281 13.5113C65.6396 13.5113 64.0699 13.9204 62.719 14.7385C61.3682 15.5376 60.3122 16.6697 59.5511 18.1347C58.8091 19.5807 58.4381 21.2741 58.4381 23.2148C58.4381 25.1555 58.8091 26.8583 59.5511 28.3233C60.3122 29.7694 61.3682 30.9014 62.719 31.7196C64.0699 32.5187 65.6396 32.9182 67.4281 32.9182C68.5316 32.9182 69.5495 32.766 70.4818 32.4616C71.4331 32.1572 72.2512 31.7196 72.9362 31.1488V23.7285H67.6564ZM80.5857 13.2259H82.5264V32.6328C82.8879 32.6328 83.4587 32.5757 84.2388 32.4616L88.9763 31.7481V33.2036H80.5857V13.2259ZM92.8845 33.2036V13.2259H94.8251V33.2036H92.8845ZM120.2 13.2259V33.2036H118.26V14.8812H118.088L111.182 28.1236H110.297L102.449 16.4509H102.278L102.905 33.2036H100.965L101.678 12.8264H102.249L111.239 26.1829H111.41L118.146 13.2259H120.2ZM145.57 13.2259V33.2036H143.63V14.8812H143.459L136.552 28.1236H135.667L127.819 16.4509H127.648L128.276 33.2036H126.335L127.048 12.8264H127.619L136.609 26.1829H136.78L143.516 13.2259H145.57ZM152.133 33.2036V13.2259H160.838V14.6244L155.843 13.968C154.968 13.8538 154.378 13.7967 154.074 13.7967V22.5013C154.321 22.5013 154.911 22.4727 155.843 22.4157L160.524 22.1303V23.4431L155.843 23.1577C154.911 23.1006 154.321 23.0721 154.074 23.0721V32.6328C154.416 32.6328 155.016 32.5757 155.872 32.4616L160.923 31.8052V33.2036H152.133ZM166.048 13.2259H169.873C171.889 13.2259 173.45 13.654 174.553 14.5102C175.676 15.3474 176.237 16.527 176.237 18.0491C176.237 19.2287 175.885 20.2086 175.181 20.9887C174.496 21.7688 173.497 22.292 172.184 22.5584V22.7296C173.44 22.9769 174.467 23.5668 175.267 24.499C176.066 25.4313 176.665 26.5824 177.065 27.9523C177.426 29.2081 177.778 30.1879 178.121 30.8919C178.482 31.5769 178.872 32.0715 179.291 32.376C179.728 32.6804 180.242 32.8992 180.832 33.0324V33.2036H179.662C178.825 33.2036 178.13 33.0514 177.578 32.747C177.046 32.4426 176.589 31.9288 176.208 31.2058C175.828 30.4828 175.466 29.484 175.124 28.2092C174.572 26.2495 173.84 24.8605 172.926 24.0424C172.013 23.2243 170.9 22.8152 169.587 22.8152H169.416V22.3015H169.587C172.65 22.3015 174.182 20.8935 174.182 18.0776C174.182 15.2998 172.746 13.9109 169.873 13.9109H167.989V33.2036H166.048V13.2259Z"/>
</mask>
<path d="M67.6564 23.7285V23.0435H74.8769V30.8063C74.0017 31.6815 72.9267 32.3665 71.6519 32.8611C70.3962 33.3558 68.9882 33.6032 67.4281 33.6032C65.8298 33.6032 64.3553 33.3463 63.0044 32.8326C61.6536 32.2999 60.4739 31.5673 59.4655 30.6351C58.4571 29.6837 57.6675 28.5802 57.0967 27.3245C56.545 26.0687 56.2691 24.6988 56.2691 23.2148C56.2691 21.7307 56.545 20.3608 57.0967 19.1051C57.6675 17.8493 58.4571 16.7553 59.4655 15.823C60.4739 14.8717 61.6536 14.1392 63.0044 13.6255C64.3553 13.0927 65.8298 12.8264 67.4281 12.8264C68.113 12.8264 68.855 12.8739 69.6541 12.9691C70.4723 13.0642 71.2524 13.1974 71.9944 13.3686C72.7364 13.5208 73.3643 13.7111 73.878 13.9394L73.7353 15.5376H73.5641C72.803 14.8717 71.8897 14.3675 70.8243 14.025C69.7588 13.6826 68.6267 13.5113 67.4281 13.5113C65.6396 13.5113 64.0699 13.9204 62.719 14.7385C61.3682 15.5376 60.3122 16.6697 59.5511 18.1347C58.8091 19.5807 58.4381 21.2741 58.4381 23.2148C58.4381 25.1555 58.8091 26.8583 59.5511 28.3233C60.3122 29.7694 61.3682 30.9014 62.719 31.7196C64.0699 32.5187 65.6396 32.9182 67.4281 32.9182C68.5316 32.9182 69.5495 32.766 70.4818 32.4616C71.4331 32.1572 72.2512 31.7196 72.9362 31.1488V23.7285H67.6564ZM80.5857 13.2259H82.5264V32.6328C82.8879 32.6328 83.4587 32.5757 84.2388 32.4616L88.9763 31.7481V33.2036H80.5857V13.2259ZM92.8845 33.2036V13.2259H94.8251V33.2036H92.8845ZM120.2 13.2259V33.2036H118.26V14.8812H118.088L111.182 28.1236H110.297L102.449 16.4509H102.278L102.905 33.2036H100.965L101.678 12.8264H102.249L111.239 26.1829H111.41L118.146 13.2259H120.2ZM145.57 13.2259V33.2036H143.63V14.8812H143.459L136.552 28.1236H135.667L127.819 16.4509H127.648L128.276 33.2036H126.335L127.048 12.8264H127.619L136.609 26.1829H136.78L143.516 13.2259H145.57ZM152.133 33.2036V13.2259H160.838V14.6244L155.843 13.968C154.968 13.8538 154.378 13.7967 154.074 13.7967V22.5013C154.321 22.5013 154.911 22.4727 155.843 22.4157L160.524 22.1303V23.4431L155.843 23.1577C154.911 23.1006 154.321 23.0721 154.074 23.0721V32.6328C154.416 32.6328 155.016 32.5757 155.872 32.4616L160.923 31.8052V33.2036H152.133ZM166.048 13.2259H169.873C171.889 13.2259 173.45 13.654 174.553 14.5102C175.676 15.3474 176.237 16.527 176.237 18.0491C176.237 19.2287 175.885 20.2086 175.181 20.9887C174.496 21.7688 173.497 22.292 172.184 22.5584V22.7296C173.44 22.9769 174.467 23.5668 175.267 24.499C176.066 25.4313 176.665 26.5824 177.065 27.9523C177.426 29.2081 177.778 30.1879 178.121 30.8919C178.482 31.5769 178.872 32.0715 179.291 32.376C179.728 32.6804 180.242 32.8992 180.832 33.0324V33.2036H179.662C178.825 33.2036 178.13 33.0514 177.578 32.747C177.046 32.4426 176.589 31.9288 176.208 31.2058C175.828 30.4828 175.466 29.484 175.124 28.2092C174.572 26.2495 173.84 24.8605 172.926 24.0424C172.013 23.2243 170.9 22.8152 169.587 22.8152H169.416V22.3015H169.587C172.65 22.3015 174.182 20.8935 174.182 18.0776C174.182 15.2998 172.746 13.9109 169.873 13.9109H167.989V33.2036H166.048V13.2259Z" fill="white"/>
<path d="M67.6564 23.7285H67.094V24.2908H67.6564V23.7285ZM67.6564 23.0435V22.4812H67.094V23.0435H67.6564ZM74.8769 23.0435H75.4392V22.4812H74.8769V23.0435ZM74.8769 30.8063L75.2745 31.2039L75.4392 31.0392V30.8063H74.8769ZM71.6519 32.8611L71.4485 32.3369L71.4458 32.3379L71.6519 32.8611ZM63.0044 32.8326L62.7981 33.3558L62.8045 33.3582L63.0044 32.8326ZM59.4655 30.6351L59.0796 31.0441L59.0838 31.048L59.4655 30.6351ZM57.0967 27.3245L56.5819 27.5507L56.5848 27.5572L57.0967 27.3245ZM57.0967 19.1051L56.5848 18.8723L56.5819 18.8788L57.0967 19.1051ZM59.4655 15.823L59.8473 16.236L59.8514 16.2321L59.4655 15.823ZM63.0044 13.6255L63.2043 14.1511L63.2107 14.1486L63.0044 13.6255ZM69.6542 12.9691L69.5877 13.5275L69.5892 13.5277L69.6542 12.9691ZM71.9944 13.3686L71.8679 13.9167L71.8814 13.9195L71.9944 13.3686ZM73.878 13.9394L74.4381 13.9894L74.4739 13.5889L74.1064 13.4255L73.878 13.9394ZM73.7353 15.5376V16.1H74.2497L74.2954 15.5876L73.7353 15.5376ZM73.5641 15.5376L73.1938 15.9608L73.3528 16.1H73.5641V15.5376ZM62.719 14.7385L63.0054 15.2226L63.0104 15.2195L62.719 14.7385ZM59.5511 18.1347L59.0521 17.8755L59.0508 17.878L59.5511 18.1347ZM59.5511 28.3233L59.0494 28.5775L59.0535 28.5853L59.5511 28.3233ZM62.719 31.7196L62.4277 32.2006L62.4327 32.2036L62.719 31.7196ZM70.4818 32.4616L70.3104 31.926L70.3072 31.927L70.4818 32.4616ZM72.9362 31.1488L73.2962 31.5808L73.4986 31.4122V31.1488H72.9362ZM72.9362 23.7285H73.4986V23.1661H72.9362V23.7285ZM67.6564 23.7285H68.2187V23.0435H67.6564H67.094V23.7285H67.6564ZM67.6564 23.0435V23.6059H74.8769V23.0435V22.4812H67.6564V23.0435ZM74.8769 23.0435H74.3145V30.8063H74.8769H75.4392V23.0435H74.8769ZM74.8769 30.8063L74.4792 30.4086C73.6648 31.2231 72.6581 31.8675 71.4485 32.3369L71.6519 32.8611L71.8554 33.3854C73.1953 32.8654 74.3385 32.1399 75.2745 31.2039L74.8769 30.8063ZM71.6519 32.8611L71.4458 32.3379C70.2651 32.803 68.9285 33.0408 67.4281 33.0408V33.6032V34.1655C69.0479 34.1655 70.5273 33.9086 71.858 33.3844L71.6519 32.8611ZM67.4281 33.6032V33.0408C65.8909 33.0408 64.4849 32.794 63.2043 32.307L63.0044 32.8326L62.8045 33.3582C64.2257 33.8987 65.7688 34.1655 67.4281 34.1655V33.6032ZM63.0044 32.8326L63.2107 32.3095C61.9209 31.8008 60.8016 31.1045 59.8473 30.2221L59.4655 30.6351L59.0838 31.048C60.1462 32.0302 61.3862 32.7989 62.7981 33.3557L63.0044 32.8326ZM59.4655 30.6351L59.8514 30.226C58.8958 29.3245 58.1491 28.2808 57.6087 27.0918L57.0967 27.3245L56.5848 27.5572C57.1859 28.8797 58.0184 30.043 59.0796 31.0441L59.4655 30.6351ZM57.0967 27.3245L57.6116 27.0982C57.0937 25.9195 56.8315 24.6274 56.8315 23.2148H56.2691H55.7067C55.7067 24.7702 55.9963 26.218 56.5819 27.5507L57.0967 27.3245ZM56.2691 23.2148H56.8315C56.8315 21.8021 57.0937 20.51 57.6116 19.3313L57.0967 19.1051L56.5819 18.8788C55.9963 20.2116 55.7067 21.6593 55.7067 23.2148H56.2691ZM57.0967 19.1051L57.6087 19.3378C58.1487 18.1499 58.8941 17.1172 59.8473 16.2359L59.4655 15.823L59.0838 15.4101C58.0202 16.3934 57.1864 17.5488 56.5848 18.8724L57.0967 19.1051ZM59.4655 15.823L59.8514 16.2321C60.8038 15.3336 61.9195 14.6397 63.2043 14.1511L63.0044 13.6255L62.8045 13.0998C61.3876 13.6387 60.144 14.4098 59.0796 15.414L59.4655 15.823ZM63.0044 13.6255L63.2107 14.1486C64.4896 13.6443 65.8934 13.3887 67.4281 13.3887V12.8264V12.264C65.7663 12.264 64.221 12.5412 62.7981 13.1023L63.0044 13.6255ZM67.4281 12.8264V13.3887C68.0874 13.3887 68.8069 13.4345 69.5877 13.5275L69.6542 12.9691L69.7206 12.4107C68.9032 12.3133 68.1387 12.264 67.4281 12.264V12.8264ZM69.6542 12.9691L69.5892 13.5277C70.3883 13.6206 71.1478 13.7504 71.8679 13.9166L71.9944 13.3686L72.1208 12.8207C71.357 12.6444 70.5563 12.5078 69.7191 12.4105L69.6542 12.9691ZM71.9944 13.3686L71.8814 13.9195C72.5965 14.0662 73.1832 14.246 73.6496 14.4533L73.878 13.9394L74.1064 13.4255C73.5454 13.1762 72.8764 12.9755 72.1074 12.8177L71.9944 13.3686ZM73.878 13.9394L73.3179 13.8894L73.1752 15.4876L73.7353 15.5376L74.2954 15.5876L74.4381 13.9894L73.878 13.9394ZM73.7353 15.5376V14.9753H73.5641V15.5376V16.1H73.7353V15.5376ZM73.5641 15.5376L73.9344 15.1144C73.1097 14.3928 72.127 13.8531 70.9964 13.4896L70.8243 14.025L70.6522 14.5604C71.6525 14.8819 72.4963 15.3506 73.1938 15.9608L73.5641 15.5376ZM70.8243 14.025L70.9964 13.4896C69.8715 13.1281 68.681 12.949 67.4281 12.949V13.5113V14.0737C68.5725 14.0737 69.6461 14.237 70.6522 14.5604L70.8243 14.025ZM67.4281 13.5113V12.949C65.5508 12.949 63.8776 13.3794 62.4277 14.2575L62.719 14.7385L63.0104 15.2195C64.2622 14.4614 65.7284 14.0737 67.4281 14.0737V13.5113ZM62.719 14.7385L62.4327 14.2545C60.9865 15.11 59.859 16.3222 59.0521 17.8755L59.5511 18.1347L60.0502 18.394C60.7654 17.0172 61.7498 15.9652 63.0054 15.2225L62.719 14.7385ZM59.5511 18.1347L59.0508 17.878C58.2608 19.4174 57.8757 21.202 57.8757 23.2148H58.4381H59.0005C59.0005 21.3462 59.3574 19.744 60.0515 18.3915L59.5511 18.1347ZM58.4381 23.2148H57.8757C57.8757 25.2278 58.2609 27.0205 59.0495 28.5774L59.5511 28.3233L60.0528 28.0693C59.3573 26.6961 59.0005 25.0831 59.0005 23.2148H58.4381ZM59.5511 28.3233L59.0535 28.5853C59.8604 30.1184 60.9863 31.3276 62.4277 32.2006L62.719 31.7196L63.0104 31.2385C61.75 30.4752 60.764 29.4203 60.0488 28.0614L59.5511 28.3233ZM62.719 31.7196L62.4327 32.2036C63.8818 33.0608 65.5532 33.4806 67.4281 33.4806V32.9182V32.3559C65.726 32.3559 64.258 31.9765 63.0054 31.2355L62.719 31.7196ZM67.4281 32.9182V33.4806C68.5836 33.4806 69.6611 33.3211 70.6564 32.9962L70.4818 32.4616L70.3072 31.927C69.4379 32.2109 68.4796 32.3559 67.4281 32.3559V32.9182ZM70.4818 32.4616L70.6532 32.9972C71.6652 32.6733 72.5493 32.2032 73.2962 31.5808L72.9362 31.1488L72.5762 30.7168C71.9532 31.2359 71.201 31.641 70.3104 31.926L70.4818 32.4616ZM72.9362 31.1488H73.4986V23.7285H72.9362H72.3738V31.1488H72.9362ZM72.9362 23.7285V23.1661H67.6564V23.7285V24.2908H72.9362V23.7285ZM80.5857 13.2259V12.6636H80.0233V13.2259H80.5857ZM82.5264 13.2259H83.0887V12.6636H82.5264V13.2259ZM82.5264 32.6328H81.964V33.1952H82.5264V32.6328ZM84.2388 32.4616L84.3202 33.018L84.3225 33.0177L84.2388 32.4616ZM88.9763 31.7481H89.5387V31.0947L88.8926 31.192L88.9763 31.7481ZM88.9763 33.2036V33.766H89.5387V33.2036H88.9763ZM80.5857 33.2036H80.0233V33.766H80.5857V33.2036ZM80.5857 13.2259V13.7883H82.5264V13.2259V12.6636H80.5857V13.2259ZM82.5264 13.2259H81.964V32.6328H82.5264H83.0887V13.2259H82.5264ZM82.5264 32.6328V33.1952C82.9317 33.1952 83.537 33.1326 84.3202 33.018L84.2388 32.4616L84.1573 31.9052C83.3804 32.0189 82.8441 32.0705 82.5264 32.0705V32.6328ZM84.2388 32.4616L84.3225 33.0177L89.0601 32.3042L88.9763 31.7481L88.8926 31.192L84.155 31.9055L84.2388 32.4616ZM88.9763 31.7481H88.414V33.2036H88.9763H89.5387V31.7481H88.9763ZM88.9763 33.2036V32.6413H80.5857V33.2036V33.766H88.9763V33.2036ZM80.5857 33.2036H81.148V13.2259H80.5857H80.0233V33.2036H80.5857ZM92.8845 33.2036H92.3221V33.766H92.8845V33.2036ZM92.8845 13.2259V12.6636H92.3221V13.2259H92.8845ZM94.8251 13.2259H95.3875V12.6636H94.8251V13.2259ZM94.8251 33.2036V33.766H95.3875V33.2036H94.8251ZM92.8845 33.2036H93.4468V13.2259H92.8845H92.3221V33.2036H92.8845ZM92.8845 13.2259V13.7883H94.8251V13.2259V12.6636H92.8845V13.2259ZM94.8251 13.2259H94.2628V33.2036H94.8251H95.3875V13.2259H94.8251ZM94.8251 33.2036V32.6413H92.8845V33.2036V33.766H94.8251V33.2036ZM120.2 13.2259H120.763V12.6636H120.2V13.2259ZM120.2 33.2036V33.766H120.763V33.2036H120.2ZM118.26 33.2036H117.697V33.766H118.26V33.2036ZM118.26 14.8812H118.822V14.3189H118.26V14.8812ZM118.088 14.8812V14.3189H117.748L117.59 14.6212L118.088 14.8812ZM111.182 28.1236V28.6859H111.523L111.68 28.3836L111.182 28.1236ZM110.297 28.1236L109.83 28.4374L109.998 28.6859H110.297V28.1236ZM102.449 16.4509L102.915 16.1371L102.748 15.8885H102.449V16.4509ZM102.278 16.4509V15.8885H101.694L101.716 16.472L102.278 16.4509ZM102.905 33.2036V33.766H103.489L103.467 33.1826L102.905 33.2036ZM100.965 33.2036L100.403 33.1839L100.382 33.766H100.965V33.2036ZM101.678 12.8264V12.264H101.135L101.116 12.8067L101.678 12.8264ZM102.249 12.8264L102.716 12.5124L102.548 12.264H102.249V12.8264ZM111.239 26.1829L110.772 26.4969L110.94 26.7452H111.239V26.1829ZM111.41 26.1829V26.7452H111.752L111.909 26.4423L111.41 26.1829ZM118.146 13.2259V12.6636H117.804L117.647 12.9665L118.146 13.2259ZM120.2 13.2259H119.638V33.2036H120.2H120.763V13.2259H120.2ZM120.2 33.2036V32.6413H118.26V33.2036V33.766H120.2V33.2036ZM118.26 33.2036H118.822V14.8812H118.26H117.697V33.2036H118.26ZM118.26 14.8812V14.3189H118.088V14.8812V15.4436H118.26V14.8812ZM118.088 14.8812L117.59 14.6212L110.683 27.8635L111.182 28.1236L111.68 28.3836L118.587 15.1413L118.088 14.8812ZM111.182 28.1236V27.5612H110.297V28.1236V28.6859H111.182V28.1236ZM110.297 28.1236L110.764 27.8098L102.915 16.1371L102.449 16.4509L101.982 16.7647L109.83 28.4374L110.297 28.1236ZM102.449 16.4509V15.8885H102.278V16.4509V17.0132H102.449V16.4509ZM102.278 16.4509L101.716 16.472L102.343 33.2247L102.905 33.2036L103.467 33.1826L102.84 16.4298L102.278 16.4509ZM102.905 33.2036V32.6413H100.965V33.2036V33.766H102.905V33.2036ZM100.965 33.2036L101.527 33.2233L102.24 12.846L101.678 12.8264L101.116 12.8067L100.403 33.1839L100.965 33.2036ZM101.678 12.8264V13.3887H102.249V12.8264V12.264H101.678V12.8264ZM102.249 12.8264L101.782 13.1404L110.772 26.4969L111.239 26.1829L111.705 25.8689L102.716 12.5124L102.249 12.8264ZM111.239 26.1829V26.7452H111.41V26.1829V25.6205H111.239V26.1829ZM111.41 26.1829L111.909 26.4423L118.645 13.4853L118.146 13.2259L117.647 12.9665L110.911 25.9235L111.41 26.1829ZM118.146 13.2259V13.7883H120.2V13.2259V12.6636H118.146V13.2259ZM145.57 13.2259H146.133V12.6636H145.57V13.2259ZM145.57 33.2036V33.766H146.133V33.2036H145.57ZM143.63 33.2036H143.067V33.766H143.63V33.2036ZM143.63 14.8812H144.192V14.3189H143.63V14.8812ZM143.459 14.8812V14.3189H143.118L142.96 14.6212L143.459 14.8812ZM136.552 28.1236V28.6859H136.893L137.051 28.3836L136.552 28.1236ZM135.667 28.1236L135.201 28.4374L135.368 28.6859H135.667V28.1236ZM127.819 16.4509L128.286 16.1371L128.118 15.8885H127.819V16.4509ZM127.648 16.4509V15.8885H127.064L127.086 16.472L127.648 16.4509ZM128.276 33.2036V33.766H128.859L128.837 33.1826L128.276 33.2036ZM126.335 33.2036L125.773 33.1839L125.752 33.766H126.335V33.2036ZM127.048 12.8264V12.264H126.505L126.486 12.8067L127.048 12.8264ZM127.619 12.8264L128.086 12.5124L127.918 12.264H127.619V12.8264ZM136.609 26.1829L136.143 26.4969L136.31 26.7452H136.609V26.1829ZM136.78 26.1829V26.7452H137.122L137.279 26.4423L136.78 26.1829ZM143.516 13.2259V12.6636H143.174L143.017 12.9665L143.516 13.2259ZM145.57 13.2259H145.008V33.2036H145.57H146.133V13.2259H145.57ZM145.57 33.2036V32.6413H143.63V33.2036V33.766H145.57V33.2036ZM143.63 33.2036H144.192V14.8812H143.63H143.067V33.2036H143.63ZM143.63 14.8812V14.3189H143.459V14.8812V15.4436H143.63V14.8812ZM143.459 14.8812L142.96 14.6212L136.053 27.8635L136.552 28.1236L137.051 28.3836L143.957 15.1413L143.459 14.8812ZM136.552 28.1236V27.5612H135.667V28.1236V28.6859H136.552V28.1236ZM135.667 28.1236L136.134 27.8098L128.286 16.1371L127.819 16.4509L127.352 16.7647L135.201 28.4374L135.667 28.1236ZM127.819 16.4509V15.8885H127.648V16.4509V17.0132H127.819V16.4509ZM127.648 16.4509L127.086 16.472L127.714 33.2247L128.276 33.2036L128.837 33.1826L128.21 16.4298L127.648 16.4509ZM128.276 33.2036V32.6413H126.335V33.2036V33.766H128.276V33.2036ZM126.335 33.2036L126.897 33.2233L127.61 12.846L127.048 12.8264L126.486 12.8067L125.773 33.1839L126.335 33.2036ZM127.048 12.8264V13.3887H127.619V12.8264V12.264H127.048V12.8264ZM127.619 12.8264L127.153 13.1404L136.143 26.4969L136.609 26.1829L137.076 25.8689L128.086 12.5124L127.619 12.8264ZM136.609 26.1829V26.7452H136.78V26.1829V25.6205H136.609V26.1829ZM136.78 26.1829L137.279 26.4423L144.015 13.4853L143.516 13.2259L143.017 12.9665L136.281 25.9235L136.78 26.1829ZM143.516 13.2259V13.7883H145.57V13.2259V12.6636H143.516V13.2259ZM152.133 33.2036H151.571V33.766H152.133V33.2036ZM152.133 13.2259V12.6636H151.571V13.2259H152.133ZM160.838 13.2259H161.4V12.6636H160.838V13.2259ZM160.838 14.6244L160.764 15.1819L161.4 15.2655V14.6244H160.838ZM155.843 13.968L155.916 13.4104L155.916 13.4103L155.843 13.968ZM154.074 13.7967V13.2344H153.511V13.7967H154.074ZM154.074 22.5013H153.511V23.0636H154.074V22.5013ZM155.843 22.4157L155.809 21.8543L155.809 21.8544L155.843 22.4157ZM160.524 22.1303H161.086V21.5326L160.489 21.569L160.524 22.1303ZM160.524 23.4431L160.489 24.0044L161.086 24.0408V23.4431H160.524ZM155.843 23.1577L155.809 23.719L155.809 23.719L155.843 23.1577ZM154.074 23.0721V22.5097H153.511V23.0721H154.074ZM154.074 32.6328H153.511V33.1952H154.074V32.6328ZM155.872 32.4616L155.799 31.9039L155.797 31.9042L155.872 32.4616ZM160.923 31.8052H161.486V31.165L160.851 31.2475L160.923 31.8052ZM160.923 33.2036V33.766H161.486V33.2036H160.923ZM152.133 33.2036H152.695V13.2259H152.133H151.571V33.2036H152.133ZM152.133 13.2259V13.7883H160.838V13.2259V12.6636H152.133V13.2259ZM160.838 13.2259H160.275V14.6244H160.838H161.4V13.2259H160.838ZM160.838 14.6244L160.911 14.0668L155.916 13.4104L155.843 13.968L155.77 14.5255L160.764 15.1819L160.838 14.6244ZM155.843 13.968L155.916 13.4103C155.046 13.2968 154.42 13.2344 154.074 13.2344V13.7967V14.3591C154.336 14.3591 154.89 14.4107 155.77 14.5256L155.843 13.968ZM154.074 13.7967H153.511V22.5013H154.074H154.636V13.7967H154.074ZM154.074 22.5013V23.0636C154.342 23.0636 154.951 23.0337 155.878 22.977L155.843 22.4157L155.809 21.8544C154.871 21.9118 154.3 21.9389 154.074 21.9389V22.5013ZM155.843 22.4157L155.877 22.977L160.558 22.6916L160.524 22.1303L160.489 21.569L155.809 21.8543L155.843 22.4157ZM160.524 22.1303H159.961V23.4431H160.524H161.086V22.1303H160.524ZM160.524 23.4431L160.558 22.8818L155.877 22.5964L155.843 23.1577L155.809 23.719L160.489 24.0044L160.524 23.4431ZM155.843 23.1577L155.878 22.5964C154.951 22.5397 154.342 22.5097 154.074 22.5097V23.0721V23.6344C154.3 23.6344 154.871 23.6616 155.809 23.719L155.843 23.1577ZM154.074 23.0721H153.511V32.6328H154.074H154.636V23.0721H154.074ZM154.074 32.6328V33.1952C154.458 33.1952 155.091 33.133 155.946 33.019L155.872 32.4616L155.797 31.9042C154.94 32.0185 154.374 32.0705 154.074 32.0705V32.6328ZM155.872 32.4616L155.944 33.0193L160.996 32.3628L160.923 31.8052L160.851 31.2475L155.799 31.9039L155.872 32.4616ZM160.923 31.8052H160.361V33.2036H160.923H161.486V31.8052H160.923ZM160.923 33.2036V32.6413H152.133V33.2036V33.766H160.923V33.2036ZM166.048 13.2259V12.6636H165.486V13.2259H166.048ZM174.553 14.5102L174.208 14.9546L174.217 14.961L174.553 14.5102ZM175.181 20.9887L174.763 20.6119L174.758 20.6176L175.181 20.9887ZM172.184 22.5584L172.072 22.0072L171.622 22.0986V22.5584H172.184ZM172.184 22.7296H171.622V23.192L172.076 23.2813L172.184 22.7296ZM175.267 24.499L174.84 24.865L175.267 24.499ZM177.065 27.9523L177.605 27.7968L177.604 27.7949L177.065 27.9523ZM178.121 30.8919L177.615 31.1379L177.619 31.1462L177.623 31.1544L178.121 30.8919ZM179.291 32.376L178.96 32.8309L178.97 32.8376L179.291 32.376ZM180.832 33.0324H181.394V32.5828L180.956 32.4838L180.832 33.0324ZM180.832 33.2036V33.766H181.394V33.2036H180.832ZM177.578 32.747L177.299 33.2353L177.307 33.2394L177.578 32.747ZM176.208 31.2058L175.711 31.4678L176.208 31.2058ZM175.124 28.2092L175.667 28.0633L175.665 28.0568L175.124 28.2092ZM172.926 24.0424L172.551 24.4613L172.926 24.0424ZM169.416 22.8152H168.854V23.3776H169.416V22.8152ZM169.416 22.3015V21.7391H168.854V22.3015H169.416ZM167.989 13.9109V13.3485H167.427V13.9109H167.989ZM167.989 33.2036V33.766H168.551V33.2036H167.989ZM166.048 33.2036H165.486V33.766H166.048V33.2036ZM166.048 13.2259V13.7883H169.873V13.2259V12.6636H166.048V13.2259ZM169.873 13.2259V13.7883C171.818 13.7883 173.239 14.2023 174.208 14.9545L174.553 14.5102L174.898 14.0659C173.66 13.1058 171.961 12.6636 169.873 12.6636V13.2259ZM174.553 14.5102L174.217 14.961C175.183 15.6818 175.675 16.6866 175.675 18.0491H176.237H176.799C176.799 16.3674 176.168 15.013 174.889 14.0594L174.553 14.5102ZM176.237 18.0491H175.675C175.675 19.1079 175.363 19.948 174.763 20.6119L175.181 20.9887L175.598 21.3654C176.407 20.4692 176.799 19.3496 176.799 18.0491H176.237ZM175.181 20.9887L174.758 20.6176C174.175 21.2816 173.3 21.7582 172.072 22.0072L172.184 22.5584L172.296 23.1095C173.694 22.8258 174.817 22.256 175.604 21.3597L175.181 20.9887ZM172.184 22.5584H171.622V22.7296H172.184H172.747V22.5584H172.184ZM172.184 22.7296L172.076 23.2813C173.213 23.5054 174.126 24.0329 174.84 24.865L175.267 24.499L175.694 24.1331C174.809 23.1006 173.667 22.4485 172.293 22.1778L172.184 22.7296ZM175.267 24.499L174.84 24.865C175.579 25.7276 176.144 26.8043 176.525 28.1098L177.065 27.9523L177.604 27.7949C177.186 26.3606 176.552 25.1351 175.694 24.1331L175.267 24.499ZM177.065 27.9523L176.524 28.1079C176.89 29.3771 177.252 30.392 177.615 31.1379L178.121 30.8919L178.626 30.6459C178.304 29.9838 177.963 29.0391 177.605 27.7968L177.065 27.9523ZM178.121 30.8919L177.623 31.1544C178.007 31.8808 178.446 32.457 178.96 32.8308L179.291 32.376L179.621 31.9212C179.298 31.6861 178.957 31.2729 178.618 30.6294L178.121 30.8919ZM179.291 32.376L178.97 32.8376C179.474 33.1886 180.057 33.4339 180.708 33.5809L180.832 33.0324L180.956 32.4838C180.427 32.3645 179.982 32.1721 179.612 31.9143L179.291 32.376ZM180.832 33.0324H180.269V33.2036H180.832H181.394V33.0324H180.832ZM180.832 33.2036V32.6413H179.662V33.2036V33.766H180.832V33.2036ZM179.662 33.2036V32.6413C178.889 32.6413 178.296 32.5005 177.85 32.2546L177.578 32.747L177.307 33.2394C177.964 33.6023 178.76 33.766 179.662 33.766V33.2036ZM177.578 32.747L177.857 32.2587C177.444 32.0223 177.053 31.6029 176.706 30.9439L176.208 31.2058L175.711 31.4678C176.125 32.2548 176.648 32.8628 177.299 33.2352L177.578 32.747ZM176.208 31.2058L176.706 30.9439C176.353 30.2732 176.004 29.3192 175.667 28.0633L175.124 28.2092L174.581 28.3551C174.928 29.6487 175.303 30.6924 175.711 31.4678L176.208 31.2058ZM175.124 28.2092L175.665 28.0568C175.102 26.0551 174.331 24.5458 173.302 23.6236L172.926 24.0424L172.551 24.4613C173.348 25.1753 174.043 26.4439 174.583 28.3616L175.124 28.2092ZM172.926 24.0424L173.302 23.6236C172.277 22.7061 171.028 22.2529 169.587 22.2529V22.8152V23.3776C170.772 23.3776 171.749 23.7424 172.551 24.4613L172.926 24.0424ZM169.587 22.8152V22.2529H169.416V22.8152V23.3776H169.587V22.8152ZM169.416 22.8152H169.978V22.3015H169.416H168.854V22.8152H169.416ZM169.416 22.3015V22.8639H169.587V22.3015V21.7391H169.416V22.3015ZM169.587 22.3015V22.8639C171.194 22.8639 172.505 22.4955 173.414 21.6595C174.332 20.8153 174.744 19.585 174.744 18.0776H174.182H173.62C173.62 19.3862 173.266 20.2678 172.653 20.8315C172.031 21.4035 171.043 21.7391 169.587 21.7391V22.3015ZM174.182 18.0776H174.744C174.744 16.5971 174.361 15.3846 173.496 14.5483C172.634 13.7154 171.391 13.3485 169.873 13.3485V13.9109V14.4732C171.227 14.4732 172.139 14.8008 172.714 15.3568C173.285 15.9094 173.62 16.7803 173.62 18.0776H174.182ZM169.873 13.9109V13.3485H167.989V13.9109V14.4732H169.873V13.9109ZM167.989 13.9109H167.427V33.2036H167.989H168.551V13.9109H167.989ZM167.989 33.2036V32.6413H166.048V33.2036V33.766H167.989V33.2036ZM166.048 33.2036H166.611V13.2259H166.048H165.486V33.2036H166.048Z" fill="white" mask="url(#path-1-outside-1_2_4375)"/>
<path d="M100.579 46.1394C100.267 46.1394 100.025 46.0788 99.8525 45.9577C99.6868 45.8366 99.6039 45.6741 99.6039 45.4702C99.6039 45.2917 99.6645 45.1547 99.7855 45.0591C99.913 44.9635 100.06 44.9157 100.225 44.9157C100.391 44.9157 100.538 44.9539 100.665 45.0304C100.793 45.1005 100.91 45.2248 101.019 45.4032L101.191 45.6996C101.223 45.7442 101.261 45.7665 101.306 45.7665C101.357 45.7665 101.392 45.7378 101.411 45.6805C101.449 45.553 101.474 45.3682 101.487 45.126C101.506 44.8774 101.516 44.5779 101.516 44.2274C101.516 43.8258 101.506 43.3096 101.487 42.6786C101.468 42.0477 101.449 41.2701 101.43 40.346C101.43 40.0719 101.328 39.8998 101.124 39.8297L100.904 39.7533V39.6577H103.409V39.7533L103.198 39.8297C103.084 39.8743 103.004 39.9349 102.959 40.0114C102.921 40.0815 102.902 40.1835 102.902 40.3173V42.2102C102.902 42.8348 102.873 43.351 102.816 43.7589C102.759 44.1668 102.666 44.5205 102.539 44.8201C102.38 45.2471 102.118 45.5753 101.755 45.8048C101.398 46.0278 101.006 46.1394 100.579 46.1394ZM106.72 41.2255C107.135 41.2255 107.488 41.3115 107.781 41.4836C108.075 41.6493 108.298 41.8788 108.451 42.1719C108.61 42.4587 108.69 42.787 108.69 43.1566C108.69 43.2267 108.687 43.3 108.68 43.3765C108.674 43.4466 108.661 43.5104 108.642 43.5677H105.793C105.799 44.256 105.92 44.7532 106.156 45.0591C106.398 45.3586 106.755 45.5084 107.227 45.5084C107.546 45.5084 107.804 45.4574 108.001 45.3554C108.199 45.2535 108.384 45.1037 108.556 44.9061L108.651 44.9922C108.454 45.3427 108.189 45.6168 107.858 45.8143C107.533 46.0119 107.141 46.1107 106.682 46.1107C106.23 46.1107 105.828 46.0151 105.478 45.8239C105.127 45.6263 104.853 45.3459 104.655 44.9826C104.458 44.6193 104.359 44.1859 104.359 43.6824C104.359 43.1598 104.474 42.7169 104.703 42.3536C104.933 41.9839 105.226 41.7035 105.583 41.5123C105.946 41.3211 106.325 41.2255 106.72 41.2255ZM106.692 41.4167C106.507 41.4167 106.347 41.4741 106.214 41.5888C106.086 41.6971 105.984 41.8947 105.908 42.1815C105.838 42.4619 105.799 42.8603 105.793 43.3765H107.428C107.491 42.6818 107.466 42.1815 107.351 41.8756C107.237 41.5697 107.017 41.4167 106.692 41.4167ZM111.853 45.996L110.381 41.9521C110.311 41.7481 110.171 41.6047 109.961 41.5219L109.798 41.4645V41.3689H112.14V41.4645L111.997 41.5027C111.748 41.5792 111.665 41.7322 111.748 41.9616L112.637 44.6671L113.431 42.5639L113.249 42.019C113.205 41.8788 113.157 41.7736 113.106 41.7035C113.061 41.627 113.001 41.5728 112.924 41.541L112.762 41.4645V41.3689H114.741V41.4645L114.607 41.5219C114.511 41.5601 114.454 41.6111 114.435 41.6748C114.415 41.7386 114.428 41.8342 114.473 41.9616L115.352 44.6193L116.261 41.9807C116.35 41.7386 116.302 41.5856 116.117 41.5219L115.907 41.4645V41.3689H117.054V41.4645L116.825 41.5314C116.716 41.5633 116.637 41.6143 116.586 41.6844C116.541 41.7481 116.5 41.8373 116.461 41.9521L115.085 45.996H114.597L113.536 42.8698L112.408 45.996H111.853ZM120.275 41.2255C120.689 41.2255 121.043 41.3115 121.336 41.4836C121.629 41.6493 121.852 41.8788 122.005 42.1719C122.164 42.4587 122.244 42.787 122.244 43.1566C122.244 43.2267 122.241 43.3 122.234 43.3765C122.228 43.4466 122.215 43.5104 122.196 43.5677H119.347C119.354 44.256 119.475 44.7532 119.711 45.0591C119.953 45.3586 120.31 45.5084 120.781 45.5084C121.1 45.5084 121.358 45.4574 121.556 45.3554C121.753 45.2535 121.938 45.1037 122.11 44.9061L122.206 44.9922C122.008 45.3427 121.744 45.6168 121.412 45.8143C121.087 46.0119 120.695 46.1107 120.236 46.1107C119.784 46.1107 119.382 46.0151 119.032 45.8239C118.681 45.6263 118.407 45.3459 118.21 44.9826C118.012 44.6193 117.913 44.1859 117.913 43.6824C117.913 43.1598 118.028 42.7169 118.258 42.3536C118.487 41.9839 118.78 41.7035 119.137 41.5123C119.5 41.3211 119.88 41.2255 120.275 41.2255ZM120.246 41.4167C120.061 41.4167 119.902 41.4741 119.768 41.5888C119.641 41.6971 119.539 41.8947 119.462 42.1815C119.392 42.4619 119.354 42.8603 119.347 43.3765H120.982C121.046 42.6818 121.02 42.1815 120.906 41.8756C120.791 41.5697 120.571 41.4167 120.246 41.4167ZM123.365 45.9673V45.8717L123.479 45.8334C123.709 45.757 123.823 45.5976 123.823 45.3554V40.2408C123.823 40.1133 123.798 40.0177 123.747 39.954C123.696 39.8839 123.607 39.8329 123.479 39.8011L123.355 39.7724V39.6768L125.105 39.2657L125.219 39.3517L125.181 40.6901V43.9597C125.181 44.1955 125.181 44.4313 125.181 44.6671C125.187 44.8966 125.191 45.126 125.191 45.3554C125.191 45.4829 125.216 45.5881 125.267 45.6709C125.318 45.7474 125.404 45.8048 125.525 45.843L125.649 45.8717V45.9673H123.365ZM126.836 45.9673V45.8717L126.98 45.8334C127.107 45.7952 127.193 45.7378 127.238 45.6614C127.289 45.5849 127.314 45.4861 127.314 45.365V42.3727C127.314 42.2325 127.289 42.1305 127.238 42.0668C127.193 41.9967 127.107 41.9489 126.98 41.9234L126.836 41.8851V41.7895L128.48 41.2351L128.576 41.3307L128.662 42.1528V42.2293C128.751 42.0509 128.866 41.8883 129.006 41.7417C129.153 41.5888 129.312 41.4645 129.484 41.3689C129.663 41.2733 129.838 41.2255 130.01 41.2255C130.252 41.2255 130.437 41.2924 130.565 41.4263C130.692 41.5601 130.756 41.729 130.756 41.9329C130.756 42.1496 130.692 42.3185 130.565 42.4396C130.443 42.5543 130.297 42.6117 130.125 42.6117C129.857 42.6117 129.621 42.4779 129.417 42.2102L129.398 42.1911C129.335 42.1018 129.261 42.054 129.178 42.0477C129.096 42.0349 129.019 42.0732 128.949 42.1624C128.885 42.2197 128.831 42.2899 128.786 42.3727C128.748 42.4492 128.71 42.5384 128.672 42.6404V45.3076C128.672 45.5626 128.783 45.7219 129.006 45.7856L129.312 45.8717V45.9673H126.836ZM132.85 48.2617C132.595 48.2617 132.391 48.198 132.238 48.0705C132.091 47.943 132.018 47.7805 132.018 47.5829C132.018 47.4045 132.082 47.2611 132.209 47.1527C132.337 47.0444 132.48 46.9902 132.639 46.9902C132.799 46.9902 132.933 47.0221 133.041 47.0858C133.149 47.1559 133.245 47.2547 133.328 47.3822L133.395 47.4587C133.535 47.6499 133.675 47.6467 133.815 47.4491C133.873 47.3535 133.936 47.226 134.006 47.0667C134.083 46.9137 134.169 46.7066 134.265 46.4453L132.41 42.0094C132.365 41.8883 132.318 41.7927 132.267 41.7226C132.216 41.6461 132.133 41.5824 132.018 41.5314L131.846 41.4645V41.3689H134.226V41.4549L134.035 41.5314C133.895 41.576 133.822 41.6493 133.815 41.7513C133.815 41.8469 133.841 41.968 133.892 42.1146L134.886 44.6958L135.832 42.0859C135.883 41.9393 135.903 41.8182 135.89 41.7226C135.877 41.6206 135.797 41.5505 135.651 41.5123L135.45 41.4645V41.3689H136.779V41.4645L136.569 41.5314C136.422 41.576 136.32 41.6398 136.263 41.7226C136.205 41.8055 136.151 41.9202 136.1 42.0668L134.561 46.2636C134.312 46.9329 134.064 47.4332 133.815 47.7646C133.567 48.096 133.245 48.2617 132.85 48.2617Z" fill="white"/>
<path d="M48.1148 20.1403L39.7496 8.8038C39.7496 8.8038 39.7029 8.74748 39.6951 8.73755L39.664 8.70442L39.6173 8.66466L39.5784 8.63485L39.5317 8.60172L39.4733 8.56859L39.446 8.55533C39.4188 8.54208 39.3876 8.52883 39.3798 8.52552L39.3565 8.51558C39.3565 8.51558 39.2981 8.49571 39.2786 8.48908L39.2202 8.47583L39.1891 8.46921C39.1619 8.46589 39.1385 8.45927 39.1113 8.45927L39.0295 8.45264H20.8356C19.9091 8.77398 19.3875 9.19471 18.9983 9.95335H22.6223L16.6861 19.0007L10.7499 9.95335H14.3739C13.9846 9.19471 13.463 8.77398 12.5366 8.45264H9.16561L9.09554 8.46257L9.0138 8.47583L8.99045 8.48245C8.8542 8.51889 8.72964 8.58184 8.61675 8.67792C8.59729 8.69448 8.57394 8.71436 8.53501 8.76074L8.51555 8.78392L0.134817 20.1403C-0.0675973 20.4153 -0.0403521 20.7698 0.204881 21.0215L23.4514 44.8143L23.4631 44.8276L23.4903 44.8508C23.5215 44.8806 23.5565 44.9071 23.5798 44.9203L23.6227 44.9468L23.6538 44.9733L23.7978 45.0263C23.829 45.0363 23.8601 45.0462 23.8679 45.0462L23.8913 45.0528L23.9535 45.0661C24.0119 45.076 24.0664 45.0827 24.1248 45.0827C24.1832 45.0827 24.2416 45.076 24.261 45.0727L24.3039 45.0661L24.3545 45.0561C24.3973 45.0462 24.4362 45.033 24.4635 45.023L24.6347 44.9634L24.6737 44.917C24.7048 44.8938 24.7359 44.8706 24.7671 44.8408L48.0486 21.0149C48.2939 20.7631 48.3211 20.412 48.1187 20.1337L48.1148 20.1403ZM37.4958 9.95335L31.5596 19.0007L25.6235 9.95335H37.4958ZM1.96043 20.4782L9.19675 10.6756L15.857 20.8261L22.2369 41.2331L1.96043 20.4782ZM24.1209 41.4153L17.6242 20.6406L24.1209 10.7418L30.6176 20.6406L24.1209 41.4153ZM26.0049 41.2331L32.3849 20.8261L39.0451 10.6756L46.2814 20.4782L26.0049 41.2331Z" fill="#CE9461"/>
<path d="M16.6822 12.0877C17.7021 8.0924 18.5273 7.39008 23.2217 6.52212C18.5273 5.65415 17.7021 4.95183 16.6822 0.956543C15.6624 4.95183 14.8371 5.65415 10.1427 6.52212C14.8371 7.39008 15.6624 8.0924 16.6822 12.0877Z" fill="#CE9461"/>
<path d="M95.738 44.029H56.0616C55.848 44.029 55.6732 43.8136 55.6732 43.5504C55.6732 43.2871 55.848 43.0718 56.0616 43.0718H95.738C95.9517 43.0718 96.1265 43.2871 96.1265 43.5504C96.1265 43.8136 95.9517 44.029 95.738 44.029Z" fill="#CE9461"/>
<path d="M180.69 44.029H141.013C140.8 44.029 140.625 43.8136 140.625 43.5504C140.625 43.2871 140.8 43.0718 141.013 43.0718H180.69C180.904 43.0718 181.078 43.2871 181.078 43.5504C181.078 43.8136 180.904 44.029 180.69 44.029Z" fill="#CE9461"/>
</svg>
