<svg width="18" height="19" viewBox="0 0 18 19" fill="none" xmlns="http://www.w3.org/2000/svg">
<path fill-rule="evenodd" clip-rule="evenodd" d="M2.57144 5.46642C2.57144 4.70562 3.18819 4.08887 3.94899 4.08887H14.051C14.8118 4.08887 15.4286 4.70562 15.4286 5.46642V5.78045L9.35212 9.83215C9.26641 9.88726 9.14201 9.92659 9 9.92659C8.85801 9.92659 8.7336 9.88726 8.6479 9.83215L2.57144 5.78046V5.46642ZM2.57144 7.16021V13.2725C2.57144 14.0333 3.18819 14.6501 3.94899 14.6501H14.051C14.8118 14.6501 15.4286 14.0333 15.4286 13.2725V7.1602L9.98579 10.7894L9.9805 10.7929C9.69153 10.981 9.34452 11.0745 9 11.0745C8.6555 11.0745 8.3085 10.981 8.01954 10.7929L8.01421 10.7894L2.57144 7.16021Z" fill="white"/>
</svg>
