<svg width="18" height="19" viewBox="0 0 18 19" fill="none" xmlns="http://www.w3.org/2000/svg">
<path d="M12.1798 1.87012H5.81982C3.74982 1.87012 2.99982 2.62012 2.99982 4.72762V14.0126C2.99982 16.1201 3.74982 16.8701 5.81982 16.8701H12.1723C14.2498 16.8701 14.9998 16.1201 14.9998 14.0126V4.72762C14.9998 2.62012 14.2498 1.87012 12.1798 1.87012ZM8.99982 14.8451C8.27982 14.8451 7.68732 14.2526 7.68732 13.5326C7.68732 12.8126 8.27982 12.2201 8.99982 12.2201C9.71982 12.2201 10.3123 12.8126 10.3123 13.5326C10.3123 14.2526 9.71982 14.8451 8.99982 14.8451ZM10.4998 5.05762H7.49982C7.19232 5.05762 6.93732 4.80262 6.93732 4.49512C6.93732 4.18762 7.19232 3.93262 7.49982 3.93262H10.4998C10.8073 3.93262 11.0623 4.18762 11.0623 4.49512C11.0623 4.80262 10.8073 5.05762 10.4998 5.05762Z" fill="white"/>
</svg>
