<svg width="23" height="22" viewBox="0 0 23 22" fill="none" xmlns="http://www.w3.org/2000/svg">
<path d="M12.7342 9.48864L12.2109 7.77469L10.5611 2.38038L4.89788 16.4729L19.5466 12.462L14.2651 10.0795L12.7342 9.48864Z" fill="#1E3231"/>
<path d="M7.46 15.4375C7.56 15.4775 7.65 15.4975 7.75 15.4975H8.02C8.43 15.4975 4.5 13.3475 14.5 12.9375C14.5 12.5275 8.43 13.9975 8.02 13.9975H9.56L22.28 1.2775C22.57 0.9875 22.57 0.5075 22.28 0.2175C21.99 -0.0725 21.51 -0.0725 21.22 0.2175L8.5 12.9375V14.4775C8.5 14.0675 8.16 13.7275 7.75 13.7275C7.34 13.7275 7 14.0675 7 14.4775V14.7475C7 14.8475 7.02 14.9375 7.06 15.0375C7.13 15.2175 7.28 15.3675 7.46 15.4375Z" fill="#1E3231"/>
</svg>
